<?xml version="1.0" encoding="iso-8859-1"?>
<!-- Generator: Adobe Illustrator 19.0.0, SVG Export Plug-In . SVG Version: 6.00 Build 0)  -->
<svg version="1.1" id="Capa_1" xmlns="http://www.w3.org/2000/svg" xmlns:xlink="http://www.w3.org/1999/xlink" x="0px" y="0px"
	 viewBox="0 0 453.486 453.486" style="enable-background:new 0 0 453.486 453.486;" xml:space="preserve">
<g>
	<path style="fill:#4DCFE0;" d="M282.122,204.278l-50.155,29.78c-3.135,2.09-7.314,2.09-10.971,0l-49.633-29.78l-155.69-93.518
		v-21.42c0-5.747,4.702-10.449,10.449-10.449h401.241c5.747,0,10.449,4.702,10.449,10.449v21.42L282.122,204.278z"/>
	<path style="fill:#4DCFE0;" d="M15.673,110.759l155.69,93.518L18.808,371.461c-1.567-2.09-3.135-4.18-3.135-7.314V110.759z"/>
	<path style="fill:#4DCFE0;" d="M437.812,110.759v253.388c0,2.612-1.045,5.224-3.135,7.314L281.6,204.278L437.812,110.759z"/>
	<path style="fill:#4DCFE0;" d="M282.122,204.278L435.2,371.461c-2.09,2.09-4.702,3.135-7.314,3.135H26.122
		c-3.135,0-5.747-1.045-7.314-3.135l152.555-167.184l49.633,29.78c3.657,2.09,7.837,2.09,10.971,0L282.122,204.278z"/>
</g>
<path style="fill:#3A2C51;" d="M427.363,63.216H26.122C11.494,63.216,0,74.71,0,89.339v274.808c0,8.359,4.18,13.584,6.269,16.718
	c4.702,5.747,11.494,9.404,19.853,9.404h401.241c6.792,0,13.584-2.612,18.286-7.837c5.224-5.224,7.837-11.494,7.837-18.286V89.339
	C453.486,74.71,441.992,63.216,427.363,63.216z M174.498,224.131l38.661,23.51c4.18,2.612,8.882,3.657,13.584,3.657
	c4.702,0,9.404-1.567,13.584-4.18l38.661-22.988l122.775,134.792H51.722L174.498,224.131z M31.347,334.367V138.449l115.461,69.486
	L31.347,334.367z M306.678,207.935l115.461-69.486v195.918L306.678,207.935z M422.139,94.563v7.314l-147.853,88.816l-47.543,28.212
	L31.347,101.878v-7.314H422.139z"/>
<g>
</g>
<g>
</g>
<g>
</g>
<g>
</g>
<g>
</g>
<g>
</g>
<g>
</g>
<g>
</g>
<g>
</g>
<g>
</g>
<g>
</g>
<g>
</g>
<g>
</g>
<g>
</g>
<g>
</g>
</svg>
