<svg id="Capa_1" enable-background="new 0 0 511.483 511.483" height="512" viewBox="0 0 511.483 511.483" width="512" xmlns="http://www.w3.org/2000/svg"><g><g id="LINES_32_"><path d="m255.742 226.483c-1.881 0-3.763.181-5.594.536l2.859 14.725c.892-.173 1.812-.261 2.734-.261 7.861 0 14.257 6.396 14.257 14.259 0 7.861-6.396 14.258-14.257 14.258s-14.258-6.396-14.258-14.258c0-3.351 1.124-6.485 3.251-9.064l-11.572-9.543c-4.307 5.222-6.679 11.83-6.679 18.607 0 16.133 13.125 29.258 29.258 29.258 16.132 0 29.257-13.125 29.257-29.258.001-16.134-13.124-29.259-29.256-29.259z"/><path d="m501.88 235.204c-6.104-5.099-14.094-7.211-21.92-5.799l-36.635 6.622v12.215h-6.243c-1.814-44.399-19.646-84.734-47.865-115.369l4.47-4.47 8.637 8.637 30.586-21.224c6.535-4.534 10.69-11.679 11.399-19.601.71-7.921-2.107-15.688-7.73-21.312-5.624-5.623-13.396-8.441-21.313-7.731-7.922.71-15.065 4.865-19.6 11.399l-21.224 30.586 8.637 8.637-4.469 4.469c-30.634-28.224-70.968-46.059-115.368-47.873v-6.234h12.214l6.622-36.635c1.414-7.827-.699-15.816-5.799-21.92s-12.585-9.601-20.537-9.601c-7.953 0-15.438 3.5-20.538 9.604s-7.213 14.093-5.799 21.92l6.622 36.635h12.215v6.24c-13.176.541-26.23 2.485-38.901 5.839l-.299.079 3.838 14.5.299-.079c13.82-3.657 28.141-5.512 42.563-5.512 91.812 0 166.507 74.698 166.507 166.516s-74.694 166.517-166.507 166.517-166.508-74.7-166.508-166.518c0-54.523 26.854-105.706 71.836-136.912 3.921-2.72 8.002-5.3 12.131-7.666l-7.461-13.014c-4.5 2.58-8.948 5.392-13.221 8.355-6.96 4.828-13.506 10.11-19.642 15.765l-4.473-4.473 8.637-8.637-21.224-30.586c-4.534-6.534-11.678-10.689-19.6-11.399-7.911-.71-15.689 2.107-21.313 7.731-5.623 5.623-8.44 13.392-7.73 21.312.71 7.922 4.865 15.065 11.399 19.6l30.586 21.224 8.637-8.637 4.474 4.474c-28.885 31.391-46.07 72.197-47.861 115.364h-6.251v-12.215l-36.635-6.622c-7.827-1.415-15.815.699-21.92 5.799-6.103 5.1-9.603 12.585-9.603 20.538 0 7.952 3.5 15.438 9.604 20.537 4.86 4.061 10.917 6.229 17.135 6.229 1.591 0 3.191-.143 4.785-.43l36.635-6.622v-12.214h6.243c1.814 44.399 19.646 84.733 47.865 115.368l-4.47 4.47-8.637-8.637-30.586 21.224c-6.534 4.534-10.689 11.678-11.399 19.599-.71 7.922 2.107 15.69 7.73 21.314 5.053 5.052 11.834 7.839 18.903 7.839.8 0 1.604-.036 2.41-.108 7.921-.71 15.065-4.864 19.6-11.399l21.224-30.586-8.637-8.637 4.469-4.469c30.634 28.224 70.969 46.059 115.369 47.873v6.234h-12.215l-6.622 36.636c-1.414 7.826.699 15.815 5.799 21.919 5.099 6.104 12.585 9.604 20.538 9.604 7.952 0 15.438-3.5 20.537-9.604 5.1-6.104 7.213-14.093 5.799-21.919l-6.622-36.636h-12.214v-6.234c44.4-1.814 84.735-19.649 115.368-47.873l4.469 4.469-8.637 8.637 21.224 30.586c4.534 6.535 11.679 10.689 19.6 11.399.806.072 1.609.108 2.41.108 7.069 0 13.852-2.788 18.903-7.839 5.623-5.624 8.44-13.392 7.73-21.313s-4.864-15.065-11.399-19.6l-30.586-21.224-8.637 8.637-4.47-4.47c28.219-30.634 46.05-70.969 47.865-115.368h6.243v12.214l36.635 6.622c1.595.288 3.194.43 4.785.43 6.218 0 12.274-2.168 17.135-6.229 6.104-5.1 9.604-12.585 9.604-20.537-.002-7.953-3.502-15.438-9.605-20.538zm-93.89-148.08c1.992-2.872 5.133-4.698 8.614-5.01 3.474-.32 6.896.927 9.368 3.398 2.471 2.471 3.709 5.884 3.397 9.365-.312 3.482-2.139 6.622-5.011 8.615l-20.291 14.079-10.157-10.157zm-159.431-33.966-4.392-24.303c-.622-3.439.307-6.951 2.549-9.634 2.241-2.683 5.531-4.222 9.026-4.222s6.784 1.538 9.025 4.221c2.242 2.684 3.171 6.195 2.549 9.635l-4.392 24.303zm-141.144 64.414-20.291-14.079c-2.872-1.992-4.698-5.133-5.01-8.614s.926-6.896 3.397-9.366c2.22-2.221 5.201-3.446 8.309-3.446.352 0 .705.016 1.059.048 3.481.312 6.622 2.138 8.614 5.01l14.079 20.291zm-54.257 145.353-24.303 4.392c-3.439.621-6.951-.307-9.635-2.549-2.683-2.24-4.221-5.53-4.221-9.025s1.538-6.786 4.221-9.027c2.137-1.784 4.799-2.737 7.532-2.737.698 0 1.402.062 2.103.189l24.303 4.392zm50.335 161.434c-1.993 2.872-5.133 4.698-8.615 5.011-3.478.313-6.896-.927-9.366-3.397-2.472-2.472-3.71-5.887-3.397-9.368.312-3.481 2.138-6.622 5.01-8.614l20.291-14.079 10.157 10.157zm163.823 58.27c.622 3.439-.307 6.951-2.548 9.634s-5.531 4.221-9.026 4.221-6.786-1.538-9.027-4.221-3.17-6.194-2.548-9.634l4.392-24.304h14.366zm136.752-88.718 20.291 14.079c2.872 1.993 4.698 5.133 5.011 8.615.312 3.481-.927 6.896-3.398 9.366-2.471 2.472-5.887 3.701-9.366 3.398-3.482-.312-6.622-2.139-8.615-5.011l-14.079-20.291zm88.195-129.143c-2.683 2.241-6.192 3.173-9.635 2.549l-24.303-4.392v-14.366l24.303-4.392c3.435-.624 6.951.307 9.635 2.548 2.683 2.241 4.221 5.532 4.221 9.027s-1.539 6.785-4.221 9.026z"/><path d="m391.393 255.741c0-74.339-60.853-134.817-135.65-134.817-74.799 0-135.651 60.479-135.651 134.817s60.851 134.819 135.65 134.819c8.527 0 17.066-.796 25.377-2.365v-.001c2.596-.49 5.206-1.063 7.758-1.702l-3.646-14.551c-2.267.568-4.586 1.077-6.895 1.513v.001c-4.96.937-10.013 1.557-15.094 1.868v-57.466c11.645-1.398 22.311-6.003 31.095-12.91l40.871 40.873c-2.008 1.744-4.074 3.437-6.213 5.066l-.001.001c-1.859 1.416-3.79 2.8-5.74 4.112l8.375 12.443c2.192-1.476 4.363-3.03 6.454-4.622 33.879-25.792 53.31-64.82 53.31-107.079zm-15.244-7.5-58.296.001c-1.398-11.646-6.003-22.312-12.909-31.098l40.943-40.946c17.398 19.425 28.54 44.486 30.262 72.043zm-112.907-112.079c27.472 1.682 52.484 12.531 71.966 29.502l-40.87 40.873c-8.785-6.907-19.451-11.512-31.096-12.91zm-15 0v57.465c-11.645 1.398-22.311 6.004-31.096 12.91l-40.871-40.873c19.482-16.971 44.495-27.82 71.967-29.502zm-82.645 40.037 40.943 40.945c-6.906 8.785-11.512 19.452-12.91 31.098l-58.296-.001c1.723-27.556 12.864-52.617 30.263-72.042zm-30.263 87.042 58.296.001c1.398 11.646 6.004 22.312 12.91 31.098l-40.943 40.945c-17.398-19.425-28.54-44.486-30.263-72.044zm112.908 112.08c-27.472-1.682-52.484-12.531-71.967-29.502l40.871-40.873c8.785 6.906 19.451 11.512 31.095 12.91v57.465zm7.5-72c-26.234 0-47.577-21.344-47.577-47.579s21.343-47.58 47.577-47.58c26.233 0 47.576 21.345 47.576 47.58s-21.342 47.579-47.576 47.579zm49.202-8.982c6.906-8.785 11.511-19.452 12.91-31.097l58.302-.001c-1.668 26.991-12.321 52.149-30.245 72.067z"/><path d="m303.835 381.809c4.869-1.84 9.685-3.986 14.313-6.38l-6.889-13.324c-4.116 2.128-8.398 4.037-12.728 5.673z"/><path d="m199.21 99.105-5.109-14.104c-4.887 1.771-9.753 3.775-14.465 5.96l6.309 13.609c4.321-2.003 8.784-3.841 13.265-5.465z"/></g></g></svg>