<?xml version="1.0" encoding="iso-8859-1"?>
<!-- Generator: Adobe Illustrator 19.0.0, SVG Export Plug-In . SVG Version: 6.00 Build 0)  -->
<svg version="1.1" id="Capa_1" xmlns="http://www.w3.org/2000/svg" xmlns:xlink="http://www.w3.org/1999/xlink" x="0px" y="0px"
	 viewBox="0 0 512 512" style="enable-background:new 0 0 512 512;" xml:space="preserve">
<path style="fill:#B1FFFF;" d="M450.19,85.62c-13.15,0-23.81-10.66-23.81-23.81S437.04,38,450.19,38S474,48.66,474,61.81l0,0
	C473.983,74.953,463.333,85.603,450.19,85.62z"/>
<g>
	<path style="fill:#304FFE;" d="M450.19,123.62c34.137,0,61.81-27.673,61.81-61.81S484.327,0,450.19,0s-61.81,27.673-61.81,61.81
		l0,0C388.419,95.931,416.069,123.581,450.19,123.62z M450.19,16C475.49,16,496,36.51,496,61.81s-20.51,45.81-45.81,45.81
		s-45.81-20.51-45.81-45.81l0,0C404.408,36.521,424.901,16.028,450.19,16z"/>
	<path style="fill:#304FFE;" d="M439,496H193.57l119.51-119.51l-80.6-80.6L339.4,189l119.42,119.4l39.6-39.6l-60.72-60.72
		l-15.28-86.56L375,74.14l-63.93,63.92l-58.5-58.5l7.57-7.56l-11.31-11.29l-7.53,7.53L229.85,56.8l-11.31,11.31L230,79.56
		l-7.53,7.53l11.29,11.31l7.54-7.53l58.5,58.5L153.28,295.89l80.6,80.6L114.38,496H0v16h439c40.296-0.05,72.95-32.704,73-73h-16
		C495.967,470.467,470.467,495.967,439,496z M350.71,177.66l21-21l9,51.1L350.71,177.66z M375,96.76l32.5,32.51l15.28,86.56l53,53
		l-17,17l-58.28-58.38l-15.28-86.56L375,130.7l-35.6,35.64l-17-17L375,96.76z M137,496l119.5-119.51l-80.6-80.6l135.2-135.2l17,17
		l-118.25,118.2l80.6,80.6L171,496H137z"/>
</g>
<g>
</g>
<g>
</g>
<g>
</g>
<g>
</g>
<g>
</g>
<g>
</g>
<g>
</g>
<g>
</g>
<g>
</g>
<g>
</g>
<g>
</g>
<g>
</g>
<g>
</g>
<g>
</g>
<g>
</g>
</svg>
