<svg id="Capa_1" enable-background="new 0 0 512 512" height="512" viewBox="0 0 512 512" width="512" xmlns="http://www.w3.org/2000/svg" xmlns:xlink="http://www.w3.org/1999/xlink"><linearGradient id="SVGID_1_" gradientTransform="matrix(1 0 0 -1 0 514)" gradientUnits="userSpaceOnUse" x1="42.059" x2="468.686" y1="20.627" y2="447.255"><stop offset="0" stop-color="#41dfd0"/><stop offset="1" stop-color="#ee83ef"/></linearGradient><g id="gradient"><path d="m443.278 89.505c-38.972 21.758-70.751 54.411-91.444 93.959-2.039-60.931-25.338-119.226-65.855-164.779-2.936-3.302-7.992-3.599-11.294-.664-.234.208-.456.43-.664.664-42.55 47.832-66.046 109.629-66.021 173.648v40.689c-11.615-3.011-23.938.745-31.9 9.722-13.958-6.656-30.669-.737-37.326 13.221-6.656 13.958-.737 30.669 13.221 37.326 1.199.572 2.437 1.058 3.705 1.454 1.284.82 2.776 1.256 4.3 1.256h48v77.218c-.004 12.134 1.696 24.208 5.052 35.868-23.248 4.674-41.051 23.451-44.483 46.914h-144.569c-4.418 0-8 3.582-8 8s3.582 8 8 8h152c4.418 0 8-3.582 8-8 .027-21.65 17.259-39.356 38.9-39.972.587.066 1.18.066 1.767 0 15.614.262 29.65 9.583 35.95 23.872 1.781 4.043 6.503 5.878 10.546 4.097.011-.005.022-.01.033-.015 15.54-6.922 33.631-4.709 47.044 5.755.236.212.485.409.744.592 3.566 2.897 6.681 6.31 9.241 10.125 1.485 2.216 3.977 3.546 6.644 3.546h153.131c4.418 0 8-3.582 8-8s-3.582-8-8-8h-115.018c15.669-13.272 27.505-30.491 34.282-49.875l38.285-110.094 9.451-27.166 4.255-12.235c18.5-53.134 16.835-111.213-4.678-163.2-2.029-4.788-7.764-5.813-11.299-3.926zm-35.758 267.167-1.377 3.961-41.535-2.344 7.673-22.063 41.534 2.343zm11.761-33.82-41.535-2.343 7.673-22.064 41.535 2.344zm19.819-56.976-6.676 19.2-41.534-2.344 7.672-22.064 41.535 2.344zm8.148-145.214c12.245 41.412 11.641 85.565-1.734 126.626l-41.487-2.341zm-95.248 103.39 1.464-4.208c14.652-42.184 42.166-78.71 78.667-104.436l-44.721 128.602-35.41-2zm0 55.948v-21.963l29.944 1.69-7.672 22.063-22.272-1.257zm0 16.559 16.806.948-7.672 22.064-9.134-.515zm0 38.522 3.668.207-3.668 10.548zm-4.807 73.286 11.95-34.361 41.534 2.344-8.527 24.52c-7.388 21.158-21.73 39.186-40.686 51.141l-6.344 3.989h-6.166c-1.842-2.358-3.851-4.58-6.013-6.649l9.05-26.022c2.041-4.875 3.778-9.872 5.202-14.962zm-59.193-361.797c15.821 21.407 28.048 45.248 36.2 70.588l-36.2-18.102zm0 70.374 41.883 20.942c4.064 17.864 6.116 36.127 6.117 54.447v2.723l-48-24zm0 72 48 24v54.112l-48-24zm0 72 48 24v54.112l-48-24zm0 72 48 24v16.274c.008 10.314-1.384 20.582-4.136 30.522l-4.764 13.692c-3.016 7.129-6.751 13.933-11.145 20.306-8.156-3.777-17.037-5.735-26.025-5.738-.645 0-1.288.016-1.93.035zm-16-286.374v52.486l-36.2 18.1c8.152-25.339 20.379-49.18 36.2-70.586zm-48 145.763c.001-18.333 2.056-36.608 6.125-54.484.181-.075.362-.148.539-.237l41.336-20.668v54.112l-48 24zm0 20.611 48-24v54.112l-48 24zm0 72 48-24v54.112l-48 24zm0 72 48-24v101.7c-.088.027-.178.049-.267.077-9.164-14.926-24.779-24.71-42.207-26.447-3.668-11.323-5.533-23.153-5.526-35.056zm-16-76.944h-45.531c-.308-.105-.622-.191-.941-.257-6.071-1.272-10.17-6.964-9.452-13.125.764-6.583 6.721-11.3 13.304-10.536 2.708.314 5.228 1.542 7.146 3.48 3.107 3.141 8.173 3.168 11.314.061.68-.672 1.233-1.461 1.634-2.329 3.705-8.022 13.211-11.523 21.234-7.818.386.178.765.372 1.135.58.052.029.105.051.157.079zm-120-176c0 22.091 17.909 40 40 40s40-17.909 40-40-17.909-40-40-40c-22.081.025-39.975 17.919-40 40zm40-24c13.255 0 24 10.745 24 24s-10.745 24-24 24-24-10.745-24-24c.015-13.248 10.752-23.985 24-24zm-82 152h74c1.524.001 3.016-.434 4.3-1.253 12.849-3.959 21.055-16.509 19.53-29.867-.692-6.215-3.458-12.016-7.85-16.467.007-.137.021-.273.021-.412v-16.001c0-4.418-3.582-8-8-8s-8 3.582-8 8v8.309c-.4-.057-.792-.132-1.195-.171-5.112-.512-10.266.39-14.9 2.606-8.302-9.35-21.294-13.001-33.251-9.344-.361-.363-.731-.716-1.109-1.061.617.152 1.25.23 1.886.233 2.122.003 4.158-.841 5.657-2.343l11.311-11.317c3.178-3.069 3.266-8.134.197-11.312s-8.134-3.266-11.312-.197c-.067.064-.132.13-.197.197l-11.314 11.312c-2.56 2.563-3.077 6.528-1.258 9.662-4.985-3.002-10.697-4.584-16.516-4.574h-.032c-17.328.017-31.968 14.932-31.968 32.569v9.431c.019 16.561 13.439 29.981 30 30zm-14-39.431c0-8.969 7.32-16.561 15.984-16.569h.016c5.467-.008 10.557 2.785 13.487 7.4 2.288 3.577 6.972 4.742 10.67 2.656 7.702-4.332 17.457-1.599 21.789 6.103.208.371.402.749.58 1.135 1.855 4.01 6.609 5.757 10.619 3.902.868-.401 1.656-.955 2.329-1.634 4.661-4.711 12.259-4.751 16.97-.09 1.938 1.918 3.165 4.438 3.48 7.146.717 6.161-3.382 11.852-9.453 13.125-.319.066-.633.152-.941.257h-71.53c-7.729-.008-13.992-6.271-14-14zm336-112.569h56c13.255 0 24-10.745 24-24s-10.745-24-24-24h-.424c-8.403-8.228-21.05-10.334-31.665-5.271-11.748-13.203-31.975-14.384-45.178-2.636s-14.384 31.975-2.636 45.178c6.071 6.824 14.769 10.728 23.903 10.729zm-15.9-33.856c.855-7.322 6.601-13.114 13.916-14.027.639-.077 1.283-.116 1.927-.117 6.26-.014 11.955 3.618 14.583 9.3 1.855 4.01 6.609 5.757 10.619 3.902.868-.401 1.656-.955 2.329-1.634 4.637-4.705 12.211-4.76 16.916-.123.43.424.828.88 1.19 1.365 1.511 2.009 3.879 3.19 6.393 3.19h4.027c4.418 0 8 3.582 8 8s-3.582 8-8 8h-56c-8.84 0-16.007-7.166-16.007-16.007 0-.618.036-1.235.107-1.849zm-224.1 1.856c-4.418 0-8-3.582-8-8v-16c0-4.418 3.582-8 8-8s8 3.582 8 8v16c0 4.418-3.582 8-8 8zm-39.6 5.088c3.069 3.178 2.981 8.243-.196 11.312-3.1 2.994-8.015 2.994-11.116 0l-11.314-11.312c-3.124-3.125-3.124-8.19.001-11.314s8.19-3.124 11.314.001zm-40.4 42.912h16c4.418 0 8 3.582 8 8s-3.582 8-8 8h-16c-4.418 0-8-3.582-8-8s3.582-8 8-8zm142.226 58.912c3.124 3.125 3.124 8.19-.001 11.314s-8.19 3.124-11.314-.001l-11.311-11.313c-3.178-3.069-3.266-8.134-.197-11.312s8.134-3.266 11.312-.197c.067.064.132.13.197.197zm17.774-42.912h-16c-4.418 0-8-3.582-8-8s3.582-8 8-8h16c4.418 0 8 3.582 8 8s-3.582 8-8 8zm-17.774-70.225c3.124 3.124 3.124 8.189 0 11.313l-11.314 11.312c-3.069 3.178-8.134 3.266-11.312.197s-3.266-8.134-.197-11.312c.064-.067.13-.132.197-.197l11.313-11.313c3.124-3.124 8.189-3.124 11.313 0z" fill="url(#SVGID_1_)"/></g></svg>