<?xml version="1.0"?>
<svg xmlns="http://www.w3.org/2000/svg" xmlns:xlink="http://www.w3.org/1999/xlink" viewBox="0 0 512 512" width="512" height="512"><linearGradient id="a" gradientUnits="userSpaceOnUse" x1="255.999" x2="255.999" y1="8" y2="512.892"><stop offset="0" stop-color="#00efd1"/><stop offset="1" stop-color="#00acea"/></linearGradient><path d="m488.188 435.638c-22.448 0-34.107 7.72-44.394 14.532-9.083 6.014-16.927 11.208-33.352 11.208a64.1 64.1 0 0 1 -8.645-.551l35.026-115.78a9.942 9.942 0 0 0 -3.678-11.056l-47.145-33.469v-100.73a42 42 0 0 0 -41.748-41.792h-44.252v-112.125c0-8.411-7.223-14.875-15.633-14.875h-56.734c-8.41 0-15.633 6.464-15.633 14.875v112.125h-44.252a42 42 0 0 0 -41.748 41.792v100.737l-47.145 33.461a9.971 9.971 0 0 0 -3.735 11.057l35.034 115.711a63.82 63.82 0 0 1 -9.135.62c-16.081 0-23.438-4.909-32.761-11.125-10.276-6.851-21.919-14.615-44.45-14.615a10 10 0 0 0 0 20c16.475 0 24.3 5.216 33.36 11.256 10.183 6.789 21.725 14.484 43.862 14.484a71.368 71.368 0 0 0 25.269-4.141c7.817-2.891 13.855-6.918 19.182-10.471 9.32-6.218 16.682-11.128 32.77-11.128 16.475 0 24.3 5.027 33.359 11.067 10.183 6.789 21.725 14.3 43.862 14.3h.646c22.107 0 33.639-7.648 43.813-14.428 9.325-6.215 16.69-11.029 32.762-11.029 16.416 0 24.266 5.242 33.354 11.256 5.46 3.613 11.648 7.732 19.7 10.609a72.282 72.282 0 0 0 24.7 3.958c22.447 0 34.107-7.715 44.394-14.526 9.082-6.014 16.926-11.2 33.352-11.2a10 10 0 1 0 0-20zm-208.188-384.638v31h-48v-31zm-48 51h48v56h-48zm-64.252 76h176.5a21.975 21.975 0 0 1 21.752 21.792v86.558l-104.1-73.7a10.269 10.269 0 0 0 -11.737 0l-104.163 73.706v-86.564a21.975 21.975 0 0 1 21.748-21.792zm10.506 257.638c-22.146 0-33.686 7.7-43.869 14.489-1.831 1.222-3.625 2.418-5.452 3.545l-32.527-107.522 45.763-32.4 103.831-73.6v220.536c-9.936-1.552-16.029-5.59-23.293-10.433-10.276-6.853-21.923-14.615-44.453-14.615zm154.442 0c-22.126 0-33.669 7.693-43.853 14.48-6.893 4.593-13.079 8.7-22.843 10.409v-220.378l102.607 72.724a9.987 9.987 0 0 0 2.953 2.092l44.034 31.185-32.612 107.8c-1.978-1.2-3.916-2.474-5.9-3.784-10.282-6.809-21.951-14.528-44.382-14.528z" fill="url(#a)"/></svg>
